<svg id="svg" version="1.1" width="400" height="137.08032827654813" viewBox="0 0 400 137.08032827654813" xmlns="http://www.w3.org/2000/svg" xmlns:xlink="http://www.w3.org/1999/xlink" ><g id="svgg"><path id="path0" d="M74.020 0.651 C 73.826 0.773,73.833 0.860,74.061 1.186 C 74.595 1.947,74.314 3.325,73.463 4.122 C 72.300 5.212,70.470 4.986,69.979 3.694 L 69.815 3.265 69.474 3.937 C 68.884 5.099,65.279 7.167,63.842 7.167 C 63.170 7.167,62.167 6.450,62.167 5.970 C 62.167 5.642,62.648 5.000,62.894 5.000 C 63.009 5.000,63.249 4.884,63.426 4.742 C 63.997 4.288,61.376 4.973,59.583 5.747 C 54.077 8.125,50.129 8.355,49.722 6.321 C 49.591 5.666,49.401 5.707,49.158 6.443 C 48.768 7.624,46.727 9.144,44.923 9.597 C 44.479 9.708,44.337 10.000,44.728 10.000 C 45.106 10.000,45.833 10.669,45.833 11.016 C 45.833 11.442,45.421 11.582,43.500 11.813 C 37.685 12.511,36.298 12.853,34.606 14.005 C 33.836 14.530,33.841 14.691,34.625 14.591 C 36.895 14.303,38.500 14.312,38.499 14.615 C 38.494 15.893,36.645 16.934,31.750 18.413 C 25.659 20.253,24.000 21.360,24.000 23.584 C 24.000 24.271,24.025 24.311,24.447 24.281 C 25.163 24.231,25.527 25.626,25.559 28.533 C 25.593 31.692,25.295 31.988,24.400 29.685 C 24.003 28.664,23.895 28.724,23.566 30.151 C 23.052 32.384,22.945 32.753,22.674 33.238 C 22.268 33.964,21.959 33.879,21.653 32.955 L 21.389 32.160 21.196 32.788 C 21.090 33.134,20.774 34.167,20.492 35.083 C 19.000 39.945,17.876 42.149,16.745 42.433 C 16.242 42.559,16.161 44.045,16.582 45.432 C 16.925 46.564,16.895 47.497,16.484 48.445 C 15.153 51.515,14.494 53.916,14.377 56.125 C 14.279 57.956,14.328 58.067,14.943 57.404 C 15.431 56.877,15.665 56.935,16.041 57.677 C 16.611 58.798,16.350 60.967,15.672 60.752 C 14.777 60.468,14.900 62.279,15.928 64.518 C 16.922 66.685,16.803 68.300,15.589 69.095 C 15.102 69.414,14.875 69.303,14.581 68.605 L 14.361 68.083 14.241 68.559 C 13.985 69.577,14.383 71.590,15.167 73.250 C 15.993 74.998,16.331 76.795,16.036 77.864 C 15.780 78.792,15.998 78.767,16.547 77.806 C 17.482 76.167,17.510 76.164,18.202 77.632 C 19.697 80.803,19.905 82.031,19.201 83.533 C 18.301 85.449,18.844 86.522,21.114 87.312 C 22.986 87.964,25.292 89.153,25.758 89.707 C 26.165 90.190,26.191 90.382,25.934 91.000 C 25.850 91.201,25.986 91.253,26.623 91.263 C 28.688 91.298,31.333 95.092,31.333 98.020 C 31.333 98.745,31.667 98.415,31.844 97.515 C 32.208 95.662,32.863 95.473,33.957 96.906 C 34.518 97.640,34.806 98.149,36.198 100.865 C 37.018 102.466,37.498 103.122,37.502 102.645 C 37.503 102.520,37.765 102.087,38.085 101.685 C 38.405 101.282,38.667 100.851,38.667 100.727 C 38.667 100.581,38.865 100.500,39.219 100.500 C 40.121 100.500,40.800 101.756,41.156 104.083 C 41.326 105.192,41.594 106.441,41.978 107.917 C 42.191 108.735,42.107 109.151,41.485 110.357 C 40.176 112.893,41.327 113.824,45.778 113.830 C 50.591 113.836,51.627 114.910,52.101 120.380 C 52.210 121.632,52.494 122.340,52.506 121.385 C 52.521 120.083,53.949 119.703,55.620 120.556 C 57.204 121.365,57.883 121.516,59.929 121.513 C 60.985 121.511,61.919 121.467,62.004 121.414 C 62.089 121.361,62.846 121.207,63.685 121.071 C 65.566 120.767,65.952 120.591,65.090 120.429 C 61.080 119.677,62.641 117.519,67.205 117.505 C 69.114 117.499,69.660 117.676,71.583 118.921 C 73.219 119.979,73.751 120.167,75.124 120.167 C 78.672 120.167,81.178 122.051,79.288 123.298 C 78.229 123.997,80.594 123.953,81.944 123.249 C 82.204 123.113,82.510 123.002,82.625 123.001 C 82.740 123.000,82.833 122.925,82.833 122.833 C 82.833 122.742,82.940 122.667,83.071 122.667 C 83.202 122.667,83.409 122.573,83.530 122.458 C 83.761 122.240,85.662 120.976,86.676 120.368 C 88.326 119.379,90.418 119.394,92.750 120.414 C 94.357 121.117,95.015 121.264,95.186 120.958 C 95.692 120.057,99.693 121.121,101.318 122.589 C 102.037 123.239,102.118 123.263,102.487 122.929 C 104.599 121.019,109.238 120.928,110.446 122.772 C 110.717 123.185,111.000 123.295,111.000 122.987 C 111.000 121.642,113.917 119.484,116.583 118.855 C 119.512 118.164,121.357 117.481,122.511 116.659 C 123.176 116.185,123.125 116.006,122.375 116.180 C 122.031 116.260,121.121 116.327,120.352 116.329 L 118.953 116.333 119.046 115.436 C 119.223 113.718,120.199 112.639,123.680 110.308 C 126.993 108.091,127.831 107.220,128.342 105.463 C 128.450 105.093,128.422 105.013,128.195 105.031 C 126.966 105.128,127.050 104.345,128.467 102.515 C 130.749 99.566,130.051 98.593,127.322 100.920 C 124.781 103.087,122.339 102.532,122.331 99.786 C 122.327 98.597,122.220 98.466,121.428 98.685 C 120.725 98.879,119.993 98.792,119.303 98.432 C 118.807 98.173,118.667 98.234,118.667 98.710 C 118.667 98.886,118.517 99.221,118.333 99.455 C 118.150 99.688,117.997 100.037,117.993 100.231 C 117.982 100.808,116.742 99.306,116.385 98.282 C 116.126 97.538,116.095 97.032,116.165 94.667 C 116.328 89.171,116.265 87.505,115.858 86.625 C 115.422 85.683,115.254 85.612,115.386 86.426 C 115.535 87.348,115.402 87.544,114.830 87.248 C 114.293 86.971,112.318 85.035,111.379 83.867 C 111.033 83.436,110.519 82.832,110.236 82.525 L 109.721 81.966 108.188 82.337 C 105.877 82.897,105.019 82.640,104.652 81.279 C 104.408 80.372,104.635 79.913,105.419 79.728 L 106.031 79.583 105.260 78.458 L 104.490 77.333 105.037 77.310 C 106.791 77.235,107.975 77.609,108.958 78.548 C 109.430 78.998,109.500 79.023,109.502 78.741 C 109.505 78.087,110.310 76.713,111.432 75.448 C 112.941 73.748,113.189 73.284,113.140 72.262 C 113.088 71.201,113.297 71.040,116.285 69.831 C 117.535 69.326,118.590 68.812,118.631 68.690 C 118.689 68.515,118.632 68.507,118.364 68.650 C 117.527 69.098,116.500 68.316,116.500 67.231 C 116.500 66.621,117.080 65.504,117.399 65.501 C 118.370 65.494,122.006 63.040,123.981 61.057 C 124.771 60.265,125.098 59.601,124.423 60.162 C 123.686 60.773,123.444 59.472,123.984 57.797 C 124.429 56.415,125.022 54.647,125.410 53.545 C 125.970 51.950,125.954 51.483,125.315 50.755 L 124.797 50.165 125.082 49.041 C 125.239 48.422,125.433 47.767,125.514 47.583 C 125.594 47.400,125.734 47.044,125.826 46.792 C 126.052 46.168,126.547 46.204,126.996 46.875 L 127.358 47.417 127.277 46.333 C 127.037 43.103,125.817 41.617,124.141 42.514 C 123.384 42.919,123.908 41.448,124.978 40.167 C 126.433 38.424,127.106 37.077,126.974 36.169 C 126.919 35.786,126.900 35.795,126.508 36.369 C 124.691 39.029,120.439 36.593,117.963 31.473 C 117.144 29.779,116.645 28.970,116.014 28.316 C 115.025 27.289,115.005 27.187,115.663 26.530 C 116.962 25.231,119.145 24.746,119.821 25.606 L 120.167 26.045 120.167 25.575 C 120.167 24.139,118.788 22.637,115.373 20.354 C 112.510 18.440,111.123 16.502,111.643 15.142 C 111.849 14.603,111.760 14.500,111.091 14.500 C 110.258 14.500,108.637 14.021,107.958 13.574 C 106.586 12.669,107.549 11.607,109.944 11.384 C 111.423 11.246,111.235 11.025,108.750 9.984 C 107.882 9.621,106.224 9.466,102.000 9.352 C 96.392 9.202,96.707 9.324,93.167 5.930 C 91.601 4.429,89.509 3.481,89.920 4.458 C 90.646 6.185,88.703 5.772,84.583 3.324 C 80.812 1.083,75.472 -0.269,74.020 0.651 M81.417 9.144 C 85.276 9.589,92.798 11.431,93.750 12.164 C 93.842 12.235,94.104 12.348,94.333 12.417 C 96.191 12.970,101.762 16.227,103.942 18.034 C 116.077 28.094,120.784 44.954,115.167 58.250 C 112.196 65.283,107.156 71.007,100.341 75.086 C 95.016 78.274,95.238 79.991,101.667 85.356 C 104.006 87.308,105.191 88.552,106.166 90.083 C 106.575 90.725,106.954 91.287,107.008 91.333 C 107.062 91.379,107.736 92.467,108.505 93.750 C 112.629 100.631,115.845 103.905,119.715 105.159 C 120.436 105.393,120.435 105.549,119.701 106.812 C 118.274 109.270,115.026 111.469,109.083 114.002 C 108.900 114.080,108.487 114.258,108.167 114.398 C 106.170 115.267,103.310 116.110,98.750 117.173 C 92.759 118.570,83.180 118.300,75.000 116.505 C 65.522 114.425,54.255 108.898,46.317 102.436 C 45.161 101.494,44.431 100.887,44.093 100.583 C 41.547 98.301,40.729 97.531,39.490 96.250 C 37.450 94.139,36.127 92.640,34.857 91.000 C 34.253 90.221,33.718 89.546,33.667 89.500 C 33.616 89.454,33.123 88.779,32.571 88.000 C 29.425 83.556,26.777 78.584,25.203 74.167 C 23.050 68.123,22.250 63.674,22.250 57.750 C 22.250 44.630,28.827 30.876,39.361 21.968 C 39.828 21.573,40.294 21.174,40.397 21.081 C 41.265 20.296,45.845 17.000,46.069 17.000 C 46.107 17.000,46.708 16.664,47.403 16.253 C 48.879 15.380,52.715 13.510,53.917 13.078 C 54.375 12.913,54.821 12.716,54.908 12.639 C 54.995 12.563,55.183 12.500,55.325 12.499 C 55.467 12.498,55.785 12.393,56.030 12.265 C 56.276 12.136,56.724 11.977,57.025 11.911 C 57.326 11.845,57.687 11.729,57.828 11.653 C 58.231 11.435,61.154 10.659,63.667 10.104 C 65.162 9.773,66.428 9.564,68.333 9.332 C 69.112 9.238,70.275 9.093,70.917 9.012 C 72.460 8.815,79.311 8.901,81.417 9.144 M68.333 12.222 C 68.333 12.401,68.799 14.103,69.072 14.927 C 69.391 15.884,70.359 17.891,70.542 17.972 C 70.610 18.003,70.667 18.106,70.667 18.202 C 70.667 18.682,72.951 21.454,74.886 23.324 C 75.603 24.017,76.460 24.958,76.790 25.417 C 78.340 27.569,79.226 28.103,80.625 27.728 C 81.244 27.562,81.142 26.293,80.359 24.437 C 79.411 22.192,79.200 21.410,79.090 19.750 C 79.035 18.925,78.908 17.291,78.807 16.120 L 78.624 13.989 78.050 13.516 C 77.152 12.775,75.827 12.529,72.250 12.436 C 70.508 12.391,68.915 12.303,68.708 12.241 C 68.502 12.179,68.333 12.170,68.333 12.222 M84.172 14.042 C 84.178 15.126,84.310 16.218,84.742 18.750 C 85.361 22.382,85.442 25.380,84.974 27.323 C 84.675 28.567,88.345 26.748,89.086 25.286 C 90.092 23.303,90.078 19.756,89.058 17.500 C 88.913 17.179,88.677 16.663,88.534 16.352 C 88.103 15.417,86.560 13.886,85.582 13.423 C 84.237 12.787,84.166 12.818,84.172 14.042 M196.364 14.042 C 196.266 14.431,196.058 15.313,195.901 16.000 C 195.615 17.262,195.035 19.166,194.658 20.084 C 194.545 20.359,194.346 20.846,194.214 21.167 C 191.191 28.548,185.394 31.791,174.750 32.055 L 173.083 32.096 173.034 33.298 L 172.985 34.500 179.409 34.500 L 185.833 34.500 185.833 56.590 C 185.833 80.869,185.801 80.055,186.842 82.308 C 187.556 83.854,189.230 85.839,190.034 86.094 C 190.199 86.146,190.333 86.247,190.333 86.317 C 190.333 86.821,194.382 88.259,197.250 88.773 C 206.071 90.356,214.119 87.754,217.965 82.075 C 218.379 81.463,219.052 80.156,219.332 79.419 C 219.486 79.015,219.506 79.027,220.645 80.157 C 225.406 84.880,230.782 87.501,238.500 88.863 C 240.398 89.198,246.978 89.144,249.000 88.778 C 251.483 88.328,254.048 87.673,254.706 87.321 C 254.865 87.236,255.076 87.167,255.174 87.167 C 255.271 87.167,255.704 87.011,256.134 86.821 C 256.565 86.631,257.179 86.363,257.500 86.225 C 258.143 85.948,259.222 85.407,260.251 84.846 C 262.780 83.466,266.546 80.198,268.525 77.667 C 268.919 77.162,269.284 76.712,269.335 76.667 C 269.778 76.270,271.711 72.903,272.445 71.248 C 277.858 59.042,274.387 44.412,264.136 36.225 C 263.465 35.690,262.879 35.214,262.833 35.167 C 262.616 34.948,260.875 33.833,260.751 33.833 C 260.673 33.833,260.491 33.730,260.346 33.604 C 259.830 33.153,256.777 31.684,255.167 31.112 C 245.252 27.589,233.483 28.896,225.244 34.435 C 218.401 39.035,214.386 45.071,212.394 53.750 C 211.759 56.520,212.015 63.895,212.841 66.583 C 214.332 71.440,215.761 74.283,218.401 77.653 L 219.239 78.722 218.661 78.612 C 218.343 78.552,217.882 78.457,217.637 78.401 C 217.231 78.308,217.157 78.372,216.824 79.108 C 215.736 81.510,213.511 84.043,211.417 85.264 C 207.634 87.469,202.219 87.342,200.102 84.999 C 198.432 83.151,198.500 84.301,198.500 57.721 L 198.500 34.503 208.708 34.460 L 218.917 34.417 218.917 33.333 L 218.917 32.250 208.708 32.207 L 198.500 32.164 198.500 22.749 L 198.500 13.333 197.522 13.333 L 196.543 13.333 196.364 14.042 M57.333 14.415 C 52.208 15.443,45.167 20.354,45.167 22.901 C 45.167 24.343,46.484 25.056,49.500 25.244 C 53.700 25.506,55.510 26.407,56.147 28.554 C 56.696 30.403,57.666 31.284,59.587 31.678 C 61.096 31.988,62.955 31.602,66.833 30.174 C 69.868 29.057,71.979 28.782,73.875 29.257 C 74.316 29.368,74.333 29.348,74.330 28.728 C 74.323 27.492,73.637 27.062,72.248 27.424 C 70.694 27.829,70.448 27.772,69.497 26.792 C 68.048 25.299,66.878 23.397,66.690 22.231 C 66.285 19.720,66.220 19.629,64.482 19.181 C 62.040 18.551,61.837 18.383,61.412 16.648 C 60.864 14.410,59.924 13.896,57.333 14.415 M96.750 19.055 C 95.782 19.434,95.241 19.818,94.317 20.779 C 93.510 21.618,92.333 23.190,92.333 23.428 C 92.333 23.471,92.157 23.786,91.941 24.128 C 90.661 26.157,90.454 28.040,91.196 30.912 C 92.266 35.056,93.480 36.235,96.667 36.226 C 101.226 36.214,106.667 31.813,106.667 28.137 C 106.667 27.180,106.184 27.362,102.834 29.588 C 100.788 30.947,100.894 30.881,99.312 31.789 C 97.849 32.630,97.363 32.671,96.628 32.013 C 96.035 31.483,95.869 30.165,96.286 29.301 C 96.950 27.927,98.000 25.615,98.001 25.525 C 98.002 25.465,98.098 25.229,98.216 25.000 C 99.153 23.173,99.604 19.398,98.937 18.961 C 98.654 18.776,97.315 18.833,96.750 19.055 M38.151 28.042 C 37.866 28.431,37.565 28.925,37.482 29.139 C 36.744 31.036,32.592 35.127,31.127 35.399 C 29.313 35.735,30.433 38.240,32.832 39.212 C 33.704 39.565,33.980 39.583,38.333 39.585 C 43.912 39.587,43.201 39.466,44.861 40.697 C 47.194 42.427,48.172 42.473,49.652 40.922 L 50.221 40.326 52.330 40.371 C 55.068 40.430,55.129 40.394,57.417 37.364 C 57.508 37.242,57.834 36.894,58.140 36.590 L 58.697 36.037 57.879 35.765 C 56.917 35.446,54.833 33.279,54.833 32.598 C 54.833 32.401,53.603 30.597,53.056 29.992 C 52.248 29.097,51.652 28.941,49.612 29.089 C 45.966 29.355,43.052 28.952,41.750 28.002 C 40.565 27.137,38.798 27.157,38.151 28.042 M108.954 28.268 C 108.899 28.323,108.896 28.728,108.948 29.166 C 109.184 31.159,108.091 33.200,106.000 34.673 C 105.679 34.899,105.379 35.128,105.333 35.182 C 105.287 35.236,104.500 35.695,103.583 36.201 C 100.242 38.047,99.918 38.249,99.110 38.985 C 97.587 40.373,97.706 42.635,99.365 43.837 C 100.854 44.916,103.524 44.744,108.500 43.250 C 109.540 42.938,112.519 42.173,112.708 42.169 C 113.438 42.155,110.993 44.457,109.488 45.201 C 107.229 46.318,106.692 46.426,104.675 46.170 C 99.725 45.542,98.494 46.071,97.432 49.283 C 96.781 51.253,97.150 51.735,100.012 52.648 C 102.798 53.537,104.737 54.201,104.917 54.327 C 105.484 54.728,107.546 55.083,109.250 55.073 C 112.142 55.057,113.962 53.897,114.750 51.569 C 115.214 50.197,115.221 42.858,114.762 39.667 C 114.332 36.683,114.040 35.907,112.165 32.750 C 111.692 31.953,111.257 30.947,111.085 30.250 C 110.644 28.462,110.447 28.167,109.690 28.167 C 109.341 28.167,109.010 28.212,108.954 28.268 M149.167 29.273 C 141.067 30.309,135.668 34.903,133.720 42.417 C 133.108 44.775,133.439 52.228,134.192 53.075 C 134.270 53.162,134.333 53.352,134.333 53.496 C 134.333 53.953,135.424 56.049,136.114 56.917 C 139.020 60.577,143.069 62.053,152.583 62.920 C 159.592 63.559,161.937 64.057,164.500 65.449 C 169.946 68.408,170.654 77.368,165.851 82.547 C 161.408 87.337,151.871 88.239,144.675 84.550 C 143.900 84.152,143.225 83.772,143.175 83.705 C 143.124 83.638,142.773 83.372,142.395 83.116 C 140.476 81.815,137.928 78.599,136.623 75.833 C 135.893 74.284,134.817 71.108,134.591 69.833 C 134.534 69.512,134.405 68.931,134.305 68.542 L 134.123 67.833 133.053 67.833 L 131.982 67.833 132.065 68.708 C 132.110 69.190,132.201 73.802,132.267 78.958 L 132.388 88.333 133.610 88.333 C 134.661 88.333,134.835 88.292,134.842 88.042 C 135.001 82.581,135.634 82.286,140.665 85.328 C 144.806 87.831,148.496 88.925,153.417 89.110 C 157.249 89.253,159.646 88.881,163.000 87.621 C 171.447 84.449,176.674 74.943,175.252 65.339 C 174.571 60.735,172.707 57.561,169.417 55.405 C 166.126 53.249,163.540 52.657,155.250 52.163 C 142.169 51.383,138.083 49.004,138.083 42.167 C 138.083 36.606,141.522 32.980,147.917 31.799 C 150.152 31.386,155.805 31.606,157.222 32.161 C 157.421 32.239,158.092 32.465,158.713 32.663 C 161.093 33.422,163.437 35.097,165.253 37.335 C 166.689 39.104,168.138 42.694,168.434 45.215 L 168.546 46.167 169.699 46.167 C 170.334 46.167,170.817 46.108,170.773 46.037 C 170.729 45.966,170.610 43.209,170.510 39.912 C 170.409 36.615,170.294 33.467,170.255 32.917 C 170.216 32.367,170.180 31.485,170.175 30.958 L 170.167 30.000 169.000 30.000 L 167.833 30.000 167.833 31.425 C 167.833 34.207,167.456 34.342,164.279 32.696 C 161.000 30.998,159.226 30.320,155.917 29.504 C 155.081 29.297,150.262 29.132,149.167 29.273 M293.167 29.755 C 291.938 31.033,290.035 31.781,287.667 31.917 C 284.517 32.098,281.458 32.161,275.617 32.164 L 269.485 32.167 269.534 33.292 L 269.583 34.417 275.458 34.460 L 281.333 34.504 281.333 59.919 L 281.333 85.333 275.417 85.333 L 269.500 85.333 269.500 86.417 L 269.500 87.500 287.333 87.500 L 305.167 87.500 305.167 86.417 L 305.167 85.333 299.500 85.333 L 293.833 85.333 293.833 66.423 L 293.833 47.512 294.765 45.964 C 301.195 35.285,310.181 29.769,317.893 31.765 C 319.737 32.243,322.333 33.946,322.333 34.679 C 322.333 34.751,322.428 34.909,322.544 35.030 C 322.809 35.308,323.115 35.976,323.560 37.250 C 323.908 38.244,323.910 38.380,323.959 61.792 L 324.008 85.333 318.171 85.333 L 312.333 85.333 312.333 86.417 L 312.333 87.500 330.417 87.500 L 348.500 87.500 348.500 86.417 L 348.500 85.333 342.583 85.333 L 336.667 85.333 336.667 64.371 C 336.667 51.019,336.604 42.895,336.495 41.996 C 335.480 33.645,328.635 29.205,316.750 29.187 C 307.720 29.173,299.681 33.825,294.676 41.959 C 294.380 42.440,294.070 42.833,293.988 42.833 C 293.901 42.833,293.819 39.920,293.794 35.991 L 293.750 29.148 293.167 29.755 M368.083 29.268 C 360.401 30.062,353.010 34.504,347.873 41.417 C 347.396 42.058,346.942 42.660,346.865 42.754 C 346.026 43.770,343.805 48.176,343.087 50.250 C 342.928 50.708,342.737 51.233,342.663 51.417 C 341.494 54.309,341.131 60.014,341.826 64.583 C 343.389 74.863,350.066 83.228,359.583 86.833 C 360.133 87.041,360.733 87.270,360.917 87.341 C 364.792 88.846,373.303 89.623,377.500 88.855 C 380.101 88.379,382.638 87.743,383.583 87.331 C 383.767 87.251,384.451 86.968,385.104 86.702 C 387.255 85.824,389.157 84.694,391.405 82.960 C 395.226 80.014,399.273 73.433,399.921 69.114 L 400.038 68.333 398.686 68.333 C 397.455 68.333,397.333 68.363,397.333 68.659 C 397.333 68.838,397.267 69.157,397.186 69.367 C 397.105 69.578,396.869 70.313,396.662 71.000 C 394.247 79.006,386.265 85.349,377.172 86.489 C 367.105 87.752,361.032 85.194,358.202 78.500 C 356.830 75.253,356.500 72.023,356.500 61.817 L 356.500 54.000 377.208 53.995 C 395.446 53.990,397.956 53.959,398.250 53.737 C 399.420 52.850,397.746 47.367,395.061 43.287 C 388.573 33.433,378.491 28.194,368.083 29.268 M78.483 30.832 C 76.842 31.700,76.835 33.681,78.463 36.393 C 79.757 38.548,81.874 40.192,82.522 39.545 C 82.869 39.198,82.721 37.680,82.277 37.032 C 81.478 35.867,81.504 35.276,82.333 35.750 C 83.087 36.181,84.078 36.070,84.557 35.501 C 85.241 34.688,85.254 34.410,84.643 33.622 C 82.694 31.111,80.143 29.955,78.483 30.832 M247.512 31.759 C 254.827 32.848,258.456 36.237,259.904 43.333 C 260.906 48.242,260.981 71.230,260.007 74.583 C 259.927 74.858,259.812 75.383,259.751 75.750 C 259.626 76.508,259.175 78.001,258.996 78.250 C 258.931 78.342,258.788 78.693,258.679 79.030 C 258.191 80.547,255.213 84.085,254.138 84.426 C 253.924 84.493,253.487 84.711,253.167 84.909 C 252.574 85.275,251.747 85.598,250.250 86.049 C 247.178 86.973,239.742 86.976,236.750 86.055 C 230.486 84.125,227.940 80.849,226.731 73.167 C 226.383 70.951,226.197 52.639,226.481 48.500 C 226.997 40.972,228.359 37.447,231.872 34.550 C 234.795 32.140,241.742 30.900,247.512 31.759 M373.607 31.762 C 375.480 32.137,376.446 32.510,377.969 33.449 C 380.558 35.045,382.449 38.610,383.255 43.417 C 383.565 45.260,383.542 51.182,383.225 51.422 C 382.967 51.618,380.775 51.657,369.708 51.661 L 356.500 51.667 356.500 49.153 C 356.500 42.476,357.920 37.916,360.920 34.958 C 361.454 34.431,361.948 34.000,362.017 34.000 C 362.086 34.000,362.248 33.895,362.376 33.767 C 364.062 32.081,369.947 31.030,373.607 31.762 M69.252 33.042 C 70.220 37.731,74.222 40.482,76.539 38.049 C 77.274 37.278,77.156 35.307,76.311 34.233 C 76.232 34.132,76.119 33.697,76.060 33.266 C 75.979 32.679,75.892 32.506,75.713 32.575 C 73.020 33.608,71.952 33.872,71.276 33.670 C 70.603 33.468,69.640 32.896,69.528 32.631 C 69.366 32.249,69.154 32.565,69.252 33.042 M63.613 34.994 C 59.337 37.898,59.037 39.762,62.542 41.630 C 67.050 44.032,70.996 43.661,71.000 40.833 C 71.004 38.350,69.558 36.238,66.979 34.958 C 65.348 34.149,64.849 34.154,63.613 34.994 M86.511 35.272 C 86.143 35.739,86.137 35.812,86.252 38.360 C 86.358 40.708,86.340 41.021,86.069 41.480 C 85.666 42.162,85.716 42.180,87.223 41.896 C 90.808 41.219,92.802 38.797,91.845 36.282 C 91.421 35.167,87.222 34.372,86.511 35.272 M28.927 42.208 C 28.623 42.873,28.212 43.979,28.012 44.667 C 27.470 46.535,27.080 47.736,26.416 49.583 C 26.086 50.500,25.681 51.663,25.514 52.167 C 23.642 57.846,24.509 61.833,27.617 61.833 C 28.600 61.833,28.830 61.747,31.704 60.292 C 36.220 58.006,36.596 57.888,39.882 57.724 C 42.891 57.575,43.352 57.372,44.760 55.583 C 45.862 54.183,47.687 52.667,48.272 52.667 C 48.558 52.667,50.362 51.425,50.530 51.112 C 50.637 50.913,50.782 50.020,50.851 49.128 C 51.004 47.171,51.231 46.728,52.466 45.974 C 53.668 45.240,54.001 44.911,53.997 44.458 C 53.992 43.673,53.778 43.571,52.788 43.883 C 51.538 44.277,49.009 44.248,47.083 43.819 C 46.258 43.635,44.908 43.333,44.083 43.149 C 41.915 42.663,40.265 42.684,38.333 43.224 C 35.873 43.911,35.091 43.764,32.681 42.163 C 31.723 41.526,30.426 41.000,29.817 41.000 C 29.558 41.000,29.348 41.286,28.927 42.208 M57.443 42.971 C 56.949 43.517,56.000 47.119,56.000 48.450 C 56.000 49.401,57.942 49.918,61.500 49.913 C 67.647 49.905,67.783 47.188,61.792 44.109 C 59.189 42.771,57.924 42.440,57.443 42.971 M77.576 43.458 C 77.861 45.447,78.484 46.333,79.596 46.333 L 80.167 46.333 80.167 45.317 C 80.167 43.591,79.410 42.667,77.998 42.667 L 77.462 42.667 77.576 43.458 M88.167 43.422 C 88.167 46.020,90.973 46.910,94.050 45.288 C 96.285 44.109,96.235 43.518,93.885 43.308 C 90.957 43.047,88.756 42.811,88.458 42.727 C 88.210 42.657,88.167 42.761,88.167 43.422 M74.065 44.096 C 73.794 45.176,74.733 46.858,76.050 47.655 C 76.868 48.149,76.872 48.142,76.675 46.409 C 76.463 44.539,75.955 43.780,74.864 43.699 C 74.240 43.653,74.167 43.689,74.065 44.096 M81.667 44.822 C 81.667 45.177,81.527 45.410,81.158 45.673 C 80.441 46.183,80.486 47.220,81.227 47.305 C 82.106 47.405,83.388 45.725,82.994 44.989 C 82.587 44.229,81.667 44.113,81.667 44.822 M70.439 47.179 C 69.847 47.645,69.869 48.000,70.491 48.000 C 70.761 48.000,71.335 48.188,71.766 48.417 C 72.799 48.966,73.447 48.966,73.698 48.415 C 74.269 47.161,71.700 46.187,70.439 47.179 M83.871 48.007 C 83.382 48.203,83.206 48.661,83.529 48.899 C 83.962 49.218,84.167 49.783,84.167 50.656 L 84.167 51.500 84.738 51.500 C 85.597 51.500,86.167 50.512,86.167 49.024 C 86.167 48.862,86.277 48.585,86.411 48.407 C 86.546 48.229,86.658 48.027,86.661 47.958 C 86.669 47.782,84.329 47.823,83.871 48.007 M89.916 48.281 C 89.109 48.560,89.009 48.718,89.173 49.446 C 89.799 52.221,95.234 53.222,96.349 50.768 C 96.769 49.842,96.786 48.582,96.375 48.750 C 95.092 49.275,94.029 49.249,92.744 48.664 C 91.602 48.144,90.675 48.018,89.916 48.281 M76.792 48.899 C 76.467 49.145,76.406 49.589,76.674 49.755 C 76.942 49.920,77.667 49.366,77.667 48.996 C 77.667 48.613,77.232 48.565,76.792 48.899 M71.667 49.917 C 71.254 50.138,70.710 50.322,70.458 50.326 C 69.871 50.335,69.781 51.448,70.324 51.991 C 71.421 53.087,73.833 52.173,73.833 50.662 C 73.833 49.437,73.059 49.171,71.667 49.917 M75.111 51.611 C 74.890 51.832,75.006 52.492,75.292 52.638 C 75.707 52.852,76.000 52.699,76.000 52.269 C 76.000 51.698,75.439 51.283,75.111 51.611 M57.458 51.958 C 54.270 52.008,54.158 52.029,54.569 52.487 C 54.946 52.907,55.333 54.694,55.335 56.024 C 55.341 60.223,57.119 60.484,61.765 56.970 C 63.689 55.515,63.863 55.415,64.750 55.263 C 65.117 55.200,65.542 55.112,65.696 55.067 C 66.134 54.939,66.656 53.902,66.769 52.934 L 66.873 52.052 65.728 51.944 C 65.099 51.884,63.683 51.852,62.583 51.872 C 61.483 51.892,59.177 51.931,57.458 51.958 M83.258 52.154 C 83.090 52.426,83.513 53.960,83.837 54.254 C 84.453 54.811,85.244 53.917,84.867 53.090 C 84.662 52.641,83.408 51.911,83.258 52.154 M88.275 53.949 C 88.337 54.471,88.487 55.090,88.609 55.324 C 88.731 55.558,88.832 55.830,88.832 55.928 C 88.837 56.785,91.218 58.158,92.708 58.164 C 93.496 58.167,93.502 58.009,92.777 56.447 C 91.542 53.787,88.027 51.836,88.275 53.949 M72.750 54.655 C 71.180 54.922,70.428 55.766,70.103 57.625 C 69.984 58.308,70.109 58.312,71.675 57.674 C 73.085 57.101,73.865 56.415,74.174 55.477 C 74.489 54.524,74.268 54.397,72.750 54.655 M77.656 54.844 C 77.271 55.229,77.301 55.556,77.730 55.639 C 78.133 55.717,78.500 55.363,78.500 54.896 C 78.500 54.402,78.122 54.378,77.656 54.844 M82.268 54.756 C 81.952 55.072,81.941 55.188,82.179 55.709 C 82.565 56.558,83.370 56.627,84.052 55.869 C 84.576 55.287,82.827 54.197,82.268 54.756 M51.000 56.553 C 47.770 57.522,45.167 60.070,45.167 62.262 C 45.167 62.515,46.105 62.885,47.445 63.161 C 50.794 63.851,54.334 60.929,54.396 57.425 L 54.417 56.250 53.333 56.214 C 52.601 56.189,51.845 56.299,51.000 56.553 M84.556 56.944 C 83.552 59.040,84.957 61.503,87.924 62.849 C 89.365 63.502,89.351 63.558,88.434 60.797 C 87.211 57.114,85.357 55.272,84.556 56.944 M98.333 57.159 C 96.704 57.394,95.488 57.984,94.031 59.245 C 93.354 59.830,93.014 60.549,93.036 61.341 C 93.066 62.413,93.187 62.500,94.652 62.500 C 96.550 62.500,97.367 62.946,97.552 64.083 C 97.626 64.542,97.741 65.104,97.808 65.333 L 97.929 65.750 100.256 65.751 C 103.407 65.753,103.248 65.714,103.920 66.649 C 104.249 67.107,104.688 67.511,104.919 67.569 C 106.699 68.016,109.356 63.826,109.379 60.533 C 109.390 58.988,109.408 59.002,106.750 58.344 C 101.779 57.112,100.195 56.889,98.333 57.159 M76.167 57.445 C 74.982 57.955,74.472 58.675,74.181 60.247 C 73.522 63.815,75.678 62.780,77.040 58.875 L 77.635 57.167 77.193 57.180 C 76.949 57.188,76.487 57.307,76.167 57.445 M79.494 58.542 C 77.741 60.903,80.475 65.299,82.792 63.845 C 83.343 63.499,83.502 63.171,83.125 63.161 C 82.411 63.142,81.680 61.446,81.670 59.783 C 81.660 58.268,80.281 57.481,79.494 58.542 M63.000 59.925 C 60.720 60.412,56.856 62.031,55.936 62.885 C 54.010 64.669,55.384 68.044,59.327 71.208 C 60.496 72.147,61.022 71.592,62.242 68.133 C 62.876 66.334,63.806 65.334,64.845 65.333 C 66.453 65.331,67.384 64.062,67.031 62.353 C 66.922 61.827,66.833 61.007,66.833 60.532 L 66.833 59.667 65.458 59.680 C 64.702 59.687,63.596 59.797,63.000 59.925 M36.731 60.603 C 35.649 60.986,34.738 61.874,34.344 62.927 C 33.774 64.451,33.836 64.615,35.406 65.716 C 35.973 66.113,35.945 66.458,35.284 67.200 C 34.441 68.148,33.662 68.291,31.407 67.913 C 28.587 67.439,27.528 67.404,27.376 67.777 C 27.073 68.526,27.474 70.699,28.001 71.167 C 28.237 71.375,29.643 73.820,29.879 74.431 C 30.121 75.057,30.493 77.040,30.752 79.083 C 31.073 81.620,32.640 83.808,33.410 82.796 C 33.572 82.583,34.664 81.731,35.498 81.167 C 37.382 79.892,38.357 78.886,39.722 76.811 C 40.668 75.373,42.003 74.301,45.083 72.507 C 48.947 70.255,50.493 68.409,50.058 66.567 L 49.904 65.917 46.202 65.872 L 42.500 65.827 42.500 65.231 C 42.500 61.938,39.577 59.594,36.731 60.603 M88.688 65.493 C 88.215 66.551,88.445 67.050,90.190 68.746 C 91.001 69.533,91.975 70.606,92.355 71.130 C 93.481 72.683,94.872 73.952,95.695 74.177 C 98.063 74.824,103.284 70.693,102.336 68.922 C 102.017 68.326,100.085 67.455,97.333 66.667 C 96.646 66.470,95.896 66.245,95.667 66.168 C 95.438 66.091,94.500 65.868,93.583 65.673 C 92.667 65.478,91.654 65.250,91.333 65.168 C 91.013 65.085,90.357 64.966,89.876 64.904 L 89.003 64.791 88.688 65.493 M70.235 65.414 C 68.291 66.383,66.387 68.863,64.155 73.336 C 63.082 75.487,63.565 76.300,66.250 76.862 C 66.708 76.957,67.571 77.136,68.167 77.259 C 68.762 77.382,69.468 77.535,69.735 77.599 L 70.219 77.716 70.112 76.687 C 70.034 75.944,69.808 75.282,69.299 74.307 C 68.152 72.108,68.351 70.908,70.110 69.417 C 71.609 68.145,72.261 67.398,72.464 66.720 C 72.762 65.726,72.725 65.590,72.078 65.281 C 71.313 64.916,71.220 64.923,70.235 65.414 M75.630 68.458 C 75.142 69.017,75.026 69.943,74.926 74.083 C 74.792 79.571,74.842 79.655,78.459 79.996 C 79.482 80.093,80.422 80.211,80.549 80.260 C 81.985 80.811,81.019 74.835,78.913 70.134 C 78.227 68.603,76.344 67.641,75.630 68.458 M81.583 69.551 C 80.663 69.841,80.744 70.113,82.000 70.953 C 84.758 72.796,85.422 74.222,84.658 76.660 C 83.871 79.171,87.164 80.414,90.792 78.975 C 91.779 78.583,91.846 78.468,91.244 78.194 C 90.323 77.775,89.234 76.502,88.083 74.503 C 85.411 69.858,84.007 68.789,81.583 69.551 M56.359 74.875 C 55.885 75.809,55.688 76.928,55.503 79.750 C 55.336 82.299,55.103 83.188,54.201 84.728 C 53.321 86.228,53.687 87.427,55.647 89.467 C 57.410 91.301,57.245 93.504,55.137 96.289 C 54.695 96.873,54.333 97.390,54.333 97.437 C 54.333 97.484,54.146 97.768,53.917 98.069 C 53.367 98.789,53.387 98.893,54.125 99.153 C 55.316 99.573,56.606 100.490,58.759 102.449 C 61.909 105.313,62.095 105.446,64.062 106.240 C 65.028 106.630,65.261 106.574,65.588 105.875 C 65.832 105.356,66.442 104.396,67.044 103.587 C 67.113 103.493,67.855 102.558,68.692 101.508 C 70.343 99.437,71.215 98.154,71.414 97.500 C 71.484 97.271,71.600 97.008,71.672 96.917 C 72.770 95.518,72.800 85.112,71.712 83.355 C 70.986 82.184,69.295 81.455,65.667 80.750 C 64.511 80.525,62.582 79.759,61.969 79.281 C 61.815 79.161,61.568 78.542,61.421 77.906 C 60.983 76.011,60.032 74.913,58.401 74.418 C 57.042 74.006,56.770 74.067,56.359 74.875 M46.667 75.609 C 41.758 76.399,41.735 76.417,41.593 79.498 C 41.422 83.205,40.725 84.494,38.667 84.912 C 37.238 85.202,36.333 85.534,36.333 85.769 C 36.333 87.135,41.519 94.015,42.724 94.249 C 44.063 94.509,44.466 94.824,45.097 96.100 C 45.723 97.367,46.013 97.583,47.519 97.903 C 47.778 97.957,48.345 98.439,48.914 99.088 C 49.442 99.689,50.160 100.326,50.509 100.505 C 51.242 100.879,51.667 101.410,51.667 101.954 C 51.667 102.648,52.654 102.308,53.650 101.273 C 54.496 100.392,53.904 99.709,51.059 98.279 C 49.115 97.302,48.658 96.439,49.389 95.129 C 49.914 94.189,49.926 93.965,49.500 93.083 C 49.323 92.717,49.176 92.079,49.173 91.667 C 49.168 90.902,49.285 90.659,50.292 89.331 C 51.308 87.990,51.012 86.953,48.894 84.439 C 47.876 83.231,47.599 81.480,48.013 78.878 C 48.166 77.917,48.147 77.590,47.886 76.669 C 47.572 75.562,47.477 75.479,46.667 75.609 M74.937 83.879 C 74.792 84.422,74.831 87.365,75.006 89.000 C 75.648 95.005,75.376 95.959,72.357 98.287 C 69.830 100.236,69.755 100.375,69.908 102.818 C 70.160 106.832,70.418 106.259,67.809 107.484 C 66.718 107.996,64.668 109.886,64.666 110.381 C 64.665 110.492,64.553 110.797,64.417 111.058 C 63.733 112.370,66.244 112.842,69.446 112.003 C 71.654 111.424,72.483 111.517,73.758 112.482 C 74.553 113.083,75.129 113.370,75.959 113.576 C 76.577 113.730,77.383 113.930,77.750 114.022 C 78.117 114.113,79.259 114.599,80.289 115.102 C 82.034 115.954,82.232 116.013,83.204 115.966 L 84.248 115.917 84.398 115.000 C 84.553 114.049,84.331 111.546,84.005 110.583 C 80.803 101.125,80.711 100.670,80.601 93.667 C 80.512 87.984,80.292 87.048,78.634 85.326 C 77.594 84.246,77.182 84.000,76.417 84.000 C 76.045 84.000,75.582 83.889,75.389 83.754 C 75.065 83.527,75.029 83.536,74.937 83.879 M84.917 84.084 C 84.825 84.116,84.244 84.191,83.625 84.251 C 82.830 84.328,82.500 84.428,82.500 84.591 C 82.500 84.857,82.930 86.182,83.254 86.917 C 85.779 92.636,86.172 94.773,85.248 97.750 C 84.529 100.063,84.706 100.867,86.441 103.167 C 88.867 106.382,89.337 107.491,89.754 110.969 C 90.063 113.554,90.305 114.064,91.491 114.633 C 92.235 114.990,95.375 115.028,96.500 114.694 C 98.717 114.036,100.772 113.195,103.833 111.690 C 105.464 110.889,106.400 110.500,108.417 109.785 C 109.058 109.558,110.773 108.937,112.227 108.405 L 114.870 107.438 114.767 106.683 C 114.563 105.197,113.657 104.219,111.033 102.654 C 108.507 101.147,107.639 99.806,105.918 94.750 C 104.878 91.693,104.758 91.479,103.228 89.939 C 100.630 87.323,99.213 86.507,96.104 85.833 C 95.385 85.677,93.941 85.326,92.250 84.894 C 89.748 84.256,85.709 83.810,84.917 84.084 " stroke="none" fill="#c4942c" fill-rule="evenodd"></path><path id="path1" d="M143.000 14.250 L 143.000 23.833 144.061 23.833 L 145.121 23.833 145.209 19.625 C 145.311 14.700,145.440 14.170,146.871 12.804 C 148.930 10.839,151.765 11.167,152.811 13.491 C 153.030 13.979,153.087 14.938,153.135 18.958 L 153.193 23.833 154.263 23.833 L 155.333 23.833 155.328 19.625 C 155.321 13.514,155.059 12.199,153.581 10.854 C 151.564 9.018,148.167 9.157,146.000 11.165 L 145.250 11.859 145.205 8.263 L 145.160 4.667 144.080 4.667 L 143.000 4.667 143.000 14.250 M134.500 7.333 L 134.500 9.833 133.333 9.833 L 132.167 9.833 132.167 10.833 L 132.167 11.833 133.333 11.833 L 134.500 11.833 134.500 17.833 L 134.500 23.833 135.583 23.833 L 136.667 23.833 136.667 17.833 L 136.667 11.833 138.083 11.833 L 139.500 11.833 139.500 10.833 L 139.500 9.833 138.083 9.833 L 136.667 9.833 136.667 7.333 L 136.667 4.833 135.583 4.833 L 134.500 4.833 134.500 7.333 M165.148 9.678 C 159.735 10.474,157.420 18.002,161.323 22.119 C 164.639 25.618,171.092 24.694,173.184 20.420 L 173.452 19.873 172.644 19.436 C 171.596 18.871,171.656 18.855,170.935 19.900 C 168.303 23.723,162.397 22.567,161.696 18.093 L 161.550 17.167 167.692 17.167 C 172.496 17.167,173.833 17.121,173.830 16.958 C 173.770 13.197,171.221 10.112,167.804 9.669 C 166.427 9.490,166.428 9.490,165.148 9.678 M167.625 11.751 C 169.517 12.197,171.333 13.880,171.333 15.187 C 171.333 15.268,169.198 15.333,166.583 15.333 C 163.971 15.333,161.833 15.304,161.833 15.268 C 161.833 15.116,162.447 13.879,162.736 13.449 C 163.189 12.775,164.311 12.056,165.350 11.774 C 166.502 11.462,166.405 11.463,167.625 11.751 M330.567 93.233 C 330.089 93.711,330.000 93.919,330.000 94.554 C 330.000 97.019,333.662 97.130,333.727 94.667 C 333.774 92.882,331.809 91.991,330.567 93.233 M201.500 105.083 L 201.500 117.000 202.750 117.000 L 204.000 117.000 204.000 105.083 L 204.000 93.167 202.750 93.167 L 201.500 93.167 201.500 105.083 M220.667 105.083 L 220.667 117.000 221.833 117.000 L 223.000 117.000 223.000 105.083 L 223.000 93.167 221.833 93.167 L 220.667 93.167 220.667 105.083 M309.333 96.583 L 309.333 99.833 307.750 99.833 L 306.167 99.833 306.167 100.833 L 306.167 101.833 307.750 101.833 L 309.333 101.833 309.333 109.417 L 309.333 117.000 310.500 117.000 L 311.667 117.000 311.667 109.417 L 311.667 101.833 313.417 101.833 L 315.167 101.833 315.167 100.833 L 315.167 99.833 313.417 99.833 L 311.667 99.833 311.667 96.583 L 311.667 93.333 310.500 93.333 L 309.333 93.333 309.333 96.583 M140.667 99.601 C 137.977 100.323,135.663 102.181,134.659 104.425 C 134.456 104.879,134.230 105.373,134.156 105.522 C 133.902 106.036,133.646 108.530,133.750 109.474 C 134.058 112.275,135.344 114.328,137.921 116.130 C 141.260 118.466,147.473 117.752,150.436 114.694 C 151.529 113.565,151.529 113.549,150.499 112.875 C 149.476 112.206,149.521 112.204,148.824 112.937 C 144.273 117.725,136.166 114.784,136.167 108.345 C 136.167 101.907,144.747 99.133,149.106 104.161 L 149.462 104.573 150.050 104.256 C 150.374 104.082,150.809 103.810,151.018 103.653 L 151.398 103.366 150.923 102.725 C 148.910 100.003,144.347 98.614,140.667 99.601 M174.250 99.438 C 165.509 101.671,164.738 113.782,173.129 117.045 C 174.368 117.527,177.950 117.582,179.167 117.137 C 187.297 114.165,187.352 102.834,179.250 99.723 C 178.584 99.468,174.946 99.260,174.250 99.438 M246.250 99.441 C 237.536 101.732,236.838 114.065,245.251 117.111 C 246.319 117.498,250.254 117.547,251.167 117.185 C 253.526 116.248,255.027 115.062,256.072 113.307 C 256.750 112.170,256.786 112.268,255.445 111.580 C 254.529 111.110,254.500 111.103,254.500 111.340 C 254.500 111.436,254.426 111.605,254.335 111.715 C 254.244 111.826,253.875 112.300,253.516 112.768 C 250.044 117.294,242.477 115.279,241.891 109.673 L 241.786 108.667 249.476 108.667 L 257.167 108.667 257.167 107.847 C 257.167 104.569,254.911 101.263,251.781 99.954 C 250.595 99.458,247.335 99.155,246.250 99.441 M280.583 99.442 C 274.113 101.160,271.106 107.469,274.134 112.974 C 276.976 118.138,285.286 119.095,289.625 114.758 C 290.867 113.517,290.863 113.558,289.826 112.875 C 288.812 112.207,288.856 112.206,288.158 112.927 C 286.293 114.855,282.365 115.946,280.480 115.060 C 280.262 114.957,279.746 114.735,279.333 114.567 C 276.773 113.521,274.918 109.858,275.564 107.121 C 276.861 101.625,283.735 99.662,287.825 103.621 C 288.895 104.656,288.776 104.635,289.831 103.986 C 290.890 103.334,290.831 103.113,289.167 101.527 C 287.514 99.952,282.891 98.829,280.583 99.442 M356.417 99.436 C 346.215 102.047,347.312 116.874,357.750 117.450 C 367.741 118.002,371.195 104.506,362.183 100.127 C 360.791 99.451,357.772 99.089,356.417 99.436 M390.250 99.688 C 389.040 100.125,388.014 100.805,387.053 101.809 L 386.333 102.560 386.333 101.196 L 386.333 99.833 385.167 99.833 L 384.000 99.833 384.000 108.417 L 384.000 117.000 385.167 117.000 L 386.333 117.000 386.338 113.042 C 386.344 106.902,386.629 105.079,387.771 103.847 C 387.989 103.612,388.167 103.370,388.167 103.310 C 388.167 102.799,391.097 101.500,392.250 101.500 C 395.948 101.500,396.658 103.154,396.663 111.792 L 396.667 117.000 397.844 117.000 L 399.021 117.000 398.961 110.625 C 398.891 103.185,398.843 102.928,397.182 101.111 C 395.716 99.509,392.547 98.858,390.250 99.688 M330.667 108.417 L 330.667 117.000 331.917 117.000 L 333.167 117.000 333.167 108.417 L 333.167 99.833 331.917 99.833 L 330.667 99.833 330.667 108.417 M250.403 102.032 C 252.376 102.680,254.484 104.873,254.498 106.292 C 254.500 106.455,253.143 106.500,248.263 106.500 L 242.027 106.500 242.297 105.792 C 243.598 102.383,246.863 100.869,250.403 102.032 M177.695 101.855 C 183.210 103.038,184.695 110.813,180.022 114.040 C 178.521 115.077,175.774 115.535,174.383 114.981 C 173.020 114.438,172.344 114.028,171.663 113.329 C 166.991 108.535,171.231 100.469,177.695 101.855 M360.949 102.242 C 363.590 103.446,365.400 106.825,364.860 109.542 C 363.241 117.679,351.796 116.768,351.763 108.500 C 351.744 103.625,356.651 100.282,360.949 102.242 " stroke="none" fill="#040404" fill-rule="evenodd"></path><path id="path2" d="M202.083 32.121 C 211.573 32.237,218.961 32.238,218.891 32.125 C 218.848 32.056,214.224 32.017,208.615 32.038 C 203.006 32.059,200.067 32.097,202.083 32.121 M272.958 32.125 C 274.815 32.152,277.852 32.152,279.708 32.125 C 281.565 32.098,280.046 32.076,276.333 32.076 C 272.621 32.076,271.102 32.098,272.958 32.125 " stroke="none" fill="#949818" fill-rule="evenodd"></path><path id="path3" d="M202.083 32.121 C 211.573 32.237,218.961 32.238,218.891 32.125 C 218.848 32.056,214.224 32.017,208.615 32.038 C 203.006 32.059,200.067 32.097,202.083 32.121 M272.958 32.125 C 274.815 32.152,277.852 32.152,279.708 32.125 C 281.565 32.098,280.046 32.076,276.333 32.076 C 272.621 32.076,271.102 32.098,272.958 32.125 " stroke="none" fill="#949818" fill-rule="evenodd"></path><path id="path4" d="M202.083 32.121 C 211.573 32.237,218.961 32.238,218.891 32.125 C 218.848 32.056,214.224 32.017,208.615 32.038 C 203.006 32.059,200.067 32.097,202.083 32.121 M272.958 32.125 C 274.815 32.152,277.852 32.152,279.708 32.125 C 281.565 32.098,280.046 32.076,276.333 32.076 C 272.621 32.076,271.102 32.098,272.958 32.125 " stroke="none" fill="#949818" fill-rule="evenodd"></path></g></svg>